<?xml version="1.0" encoding="UTF-8"?>
<svg version="1.1" xmlns="http://www.w3.org/2000/svg" width="140" height="140">
<path d="M0 0 C0.64431976 -0.00058411 1.28863953 -0.00116821 1.95248413 -0.00177002 C4.07402146 0.00100823 6.19413905 0.03208382 8.31542969 0.06347656 C9.78944125 0.07093998 11.26346275 0.07663244 12.73748779 0.08062744 C16.61095736 0.09587617 20.48382384 0.13515049 24.35705566 0.17944336 C28.31184735 0.22041305 32.2667368 0.23864202 36.22167969 0.25878906 C43.97716251 0.30164628 51.73214899 0.36988734 59.48730469 0.45410156 C60.04847717 2.34887695 60.04847717 2.34887695 60.48730469 4.45410156 C59.50854492 6.13769531 59.50854492 6.13769531 57.85839844 7.89160156 C57.20983887 8.58640625 56.5612793 9.28121094 55.89306641 9.99707031 C54.70221436 11.21330078 54.70221436 11.21330078 53.48730469 12.45410156 C53.02157043 12.93057129 52.55583618 13.40704102 52.07598877 13.89794922 C48.26706811 17.7834936 44.41159503 21.62122419 40.54980469 25.45410156 C39.3770446 26.62183531 38.20451671 27.7898023 37.03222656 28.95800781 C34.1865878 31.79273391 31.33783016 34.62428981 28.48730469 37.45410156 C32.36855357 42.12353484 36.42057072 46.47787379 40.79589844 50.68457031 C41.96639781 51.82785957 43.13630343 52.97175699 44.30566406 54.11621094 C46.12604101 55.89307487 47.94988755 57.66570944 49.78393555 59.4284668 C51.57015194 61.14839551 53.34028849 62.88355956 55.10839844 64.62207031 C55.66345566 65.14818405 56.21851288 65.67429779 56.79039001 66.21635437 C58.30932617 67.72436523 58.30932617 67.72436523 60.48730469 70.45410156 C60.12342834 72.62471008 60.12342834 72.62471008 59.48730469 74.45410156 C43.48464743 74.50077754 27.48201219 74.53606875 11.47930336 74.55772591 C4.04933016 74.568048 -3.38060079 74.58212609 -10.81054688 74.60498047 C-17.28485314 74.62488586 -23.75912882 74.63781121 -30.23346484 74.64227855 C-33.66306062 74.64489079 -37.09256889 74.65104989 -40.52213669 74.66556168 C-44.34631772 74.68161267 -48.17041235 74.68208309 -51.99462891 74.68115234 C-53.13757919 74.6883429 -54.28052948 74.69553345 -55.45811462 74.70294189 C-56.4958049 74.70019257 -57.53349518 74.69744324 -58.60263062 74.6946106 C-59.50783133 74.69645418 -60.41303204 74.69829777 -61.34566307 74.70019722 C-63.51269531 74.45410156 -63.51269531 74.45410156 -65.51269531 72.45410156 C-66.05529061 67.55110591 -64.8776885 64.44576046 -62.68286133 60.09741211 C-62.23172974 59.19142525 -62.23172974 59.19142525 -61.77148438 58.26713562 C-60.78124442 56.28574242 -59.77423416 54.31341732 -58.76660156 52.34082031 C-58.07297866 50.96223414 -57.38036106 49.58314174 -56.68870544 48.2035675 C-54.87003345 44.58341395 -53.03671875 40.970867 -51.20056152 37.35955811 C-49.70004051 34.4022182 -48.21002334 31.43964961 -46.72052097 28.47674847 C-44.94763577 24.95054521 -43.17035924 21.42656435 -41.39160156 17.90332031 C-41.05100771 17.22855841 -40.71041386 16.5537965 -40.35949898 15.85858727 C-39.39931856 13.95913063 -38.43620592 12.06119538 -37.47192383 10.16381836 C-36.92343277 9.08271286 -36.37494171 8.00160736 -35.80982971 6.88774109 C-34.51269531 4.45410156 -34.51269531 4.45410156 -33.51269531 3.45410156 C-31.51311168 3.41329373 -29.51224277 3.411558 -27.51269531 3.45410156 C-25.78190602 6.74491742 -24.05337234 10.03691323 -22.32519531 13.32910156 C-21.84244141 14.24691406 -21.3596875 15.16472656 -20.86230469 16.11035156 C-17.67282983 22.18961908 -14.55877701 28.30173562 -11.51269531 34.45410156 C-11.50334961 33.56625977 -11.49400391 32.67841797 -11.484375 31.76367188 C-11.4402885 28.46064238 -11.37864786 25.1589015 -11.30517578 21.85644531 C-11.27699921 20.42883219 -11.25576804 19.00106403 -11.24169922 17.57324219 C-11.22022139 15.51709824 -11.17355557 13.46281154 -11.12207031 11.40722656 C-11.10112305 10.17133789 -11.08017578 8.93544922 -11.05859375 7.66210938 C-9.939104 1.08335474 -6.18548118 -0.04721741 0 0 Z " fill="#F0F2F2" transform="translate(74.5126953125,29.5458984375)"/>
<path d="M0 0 C1.16804169 0.00444122 2.33608337 0.00888245 3.53952026 0.01345825 C4.18354797 0.0131662 4.82757568 0.01287415 5.49111938 0.01257324 C7.623112 0.0139683 9.75475655 0.02953729 11.88668823 0.04519653 C13.36356414 0.04892605 14.84044252 0.05177331 16.31732178 0.05377197 C20.20704971 0.0614133 24.09662861 0.08106596 27.98629761 0.10317993 C31.95437606 0.12362768 35.92247855 0.13277139 39.89059448 0.14285278 C47.67842289 0.16431147 55.46612844 0.19845331 63.25387573 0.24050903 C63.81394958 2.13638306 63.81394958 2.13638306 64.25387573 4.24050903 C63.29269409 5.90652466 63.29269409 5.90652466 61.65621948 7.64675903 C61.00765991 8.34156372 60.35910034 9.03636841 59.69088745 9.75222778 C58.88667358 10.5733606 58.08245972 11.39449341 57.25387573 12.24050903 C56.53497162 12.97551636 56.53497162 12.97551636 55.80154419 13.72537231 C51.8398342 17.76409711 47.83111369 21.75461493 43.81637573 25.74050903 C42.59543883 26.95642017 41.37473381 28.17256419 40.15426636 29.38894653 C37.1901356 32.34215869 34.22288615 35.29220301 31.25387573 38.24050903 C26.52379449 34.28512168 22.02766268 30.1735068 17.66403198 25.81863403 C17.0746434 25.23257385 16.48525482 24.64651367 15.87800598 24.04269409 C14.6474229 22.81712979 13.41815029 21.59024831 12.19015503 20.36209106 C10.30207069 18.47622077 8.40609201 16.59852502 6.50973511 14.72097778 C5.31067975 13.52485185 4.1120945 12.32825441 2.91403198 11.13113403 C2.34539932 10.56968689 1.77676666 10.00823975 1.19090271 9.42977905 C-2.74612427 5.46936683 -2.74612427 5.46936683 -2.74612427 3.24050903 C-3.40612427 2.91050903 -4.06612427 2.58050903 -4.74612427 2.24050903 C-2.74612427 0.24050903 -2.74612427 0.24050903 0 0 Z " fill="#D6DAD9" transform="translate(70.74612426757813,29.759490966796875)"/>
<path d="M0 0 C3.91061107 4.35499869 6.10899961 9.10337457 8.5 14.375 C9.25764247 16.02991871 10.01802166 17.68358749 10.78125 19.3359375 C11.11189453 20.06345215 11.44253906 20.7909668 11.78320312 21.54052734 C13.37996427 24.76800963 15.21346658 27.87356651 17 31 C17.33 21.1 17.66 11.2 18 1 C18.66 0.67 19.32 0.34 20 0 C19.96970703 0.96373535 19.93941406 1.9274707 19.90820312 2.92041016 C19.58171706 13.45157969 19.29882587 23.98344482 19.05718994 34.51690674 C19.02002245 36.13065796 18.98194663 37.7443886 18.94281006 39.35809326 C18.82507827 44.25955064 18.74603037 49.15997168 18.6875 54.0625 C18.64302734 55.94026123 18.64302734 55.94026123 18.59765625 57.85595703 C18.58992188 59.00821777 18.5821875 60.16047852 18.57421875 61.34765625 C18.55963623 62.34804932 18.54505371 63.34844238 18.5300293 64.37915039 C18.8526134 67.61421 18.8526134 67.61421 23 71 C3.86 71 -15.28 71 -35 71 C-35.33 70.34 -35.66 69.68 -36 69 C-35.46858398 68.84966309 -34.93716797 68.69932617 -34.38964844 68.54443359 C-27.92185531 66.71212304 -21.45987593 64.86001333 -15 63 C-14.05060547 62.72784668 -13.10121094 62.45569336 -12.12304688 62.17529297 C-9.413017 61.39552022 -6.70617078 60.60554855 -4 59.8125 C-2.75621582 59.45647705 -2.75621582 59.45647705 -1.48730469 59.09326172 C4.70142417 57.39722386 4.70142417 57.39722386 10 54 C10.44378653 48.40139331 9.38917137 43.46013819 8.06640625 38.07421875 C7.86901352 37.24541702 7.67162079 36.4166153 7.46824646 35.56269836 C7.05241663 33.82306032 6.63284511 32.08431281 6.2097168 30.34643555 C5.5607019 27.68011293 4.92293677 25.01129184 4.28710938 22.34179688 C3.88085513 20.64828221 3.47397619 18.95491725 3.06640625 17.26171875 C2.87470352 16.46279709 2.68300079 15.66387543 2.48548889 14.84074402 C1.53989521 10.81745268 1.53989521 10.81745268 0 7 C-0.04022391 4.6670134 -0.04320247 2.33293334 0 0 Z " fill="#D4D6D5" transform="translate(46,33)"/>
<path d="M0 0 C-2.4139732 2.86159737 -4.5416675 3.67431995 -8.125 4.625 C-11.34365882 5.2994741 -11.34365882 5.2994741 -14 7 C7.78 7.495 7.78 7.495 30 8 C30 8.33 30 8.66 30 9 C10.86 9 -8.28 9 -28 9 C-28.33 8.34 -28.66 7.68 -29 7 C-28.06933716 6.73521851 -28.06933716 6.73521851 -27.11987305 6.46508789 C-24.30888435 5.66491784 -21.49818942 4.86372066 -18.6875 4.0625 C-17.71103516 3.78470703 -16.73457031 3.50691406 -15.72851562 3.22070312 C-14.79072266 2.95322266 -13.85292969 2.68574219 -12.88671875 2.41015625 C-11.59060669 2.04096069 -11.59060669 2.04096069 -10.26831055 1.66430664 C-6.61534666 0.5944848 -3.82688315 -0.10342927 0 0 Z " fill="#BBCCC8" transform="translate(39,95)"/>
<path d="M0 0 C3.1546371 3.14810651 6.29661369 6.30806315 9.42799377 9.47929382 C11.70357439 11.78179416 13.98462755 14.0788423 16.26586914 16.37573242 C17.46719747 17.58718201 18.66673373 18.80041125 19.86450195 20.01538086 C21.60417838 21.77931525 23.35023506 23.53671053 25.09765625 25.29296875 C25.6300441 25.83567917 26.16243195 26.37838959 26.71095276 26.93754578 C29.2889947 29.51636027 31.5790225 31.65075951 35 33 C34.01 33.66 33.02 34.32 32 35 C27.43224961 30.50815312 22.87617448 26.00471263 18.328125 21.49291992 C16.77872471 19.95863019 15.2266459 18.42704054 13.671875 16.89819336 C11.44085678 14.70345764 9.21957008 12.4992739 7 10.29296875 C6.30003906 9.60849167 5.60007812 8.92401459 4.87890625 8.21879578 C4.23824219 7.57835831 3.59757812 6.93792084 2.9375 6.27807617 C2.08478516 5.43535408 2.08478516 5.43535408 1.21484375 4.5756073 C0 3 0 3 0 0 Z " fill="#CBCDCC" transform="translate(69,33)"/>
<path d="M0 0 C3.09592835 3.5087188 4.74194623 6.49197399 6 11 C4.68 11 3.36 11 2 11 C-0.32590854 7.36576791 -0.16265833 4.22911669 0 0 Z " fill="#AEC7C1" transform="translate(46,33)"/>
</svg>
